<svg xmlns="http://www.w3.org/2000/svg" fill="none" viewBox="0 0 161 72" height="72" width="161">
<g id="Logo">
<path fill="white" d="M76.9174 33.9206C89.5115 33.9206 90.9704 27.7821 90.9704 23.1689H90.9757V0.489746H95.3364V23.1689C95.3364 29.9536 92.0845 38.0465 76.8909 38.0465C61.6974 38.0465 58.5037 29.9589 58.5037 23.1689V0.489746H62.8645V23.1689C62.8645 27.7821 64.3233 33.9206 76.9174 33.9206ZM0 0.495056H27.6444C41.2624 0.495056 48.1642 5.33596 48.1642 14.8801C48.1642 19.578 46.1006 23.2378 42.021 25.7536C38.1696 28.1317 33.0396 29.3393 26.785 29.3393H4.99202V50.6149H0V0.495056ZM4.99202 24.6678H27.6444C32.5463 24.6678 36.4614 23.7251 39.2889 21.8607C41.9521 20.1023 43.2465 17.8196 43.2465 14.8801C43.2465 12.4596 43.2465 5.09233 27.6444 5.09233H4.99202V24.6678ZM158.769 48.3745C157.559 46.3778 156.944 43.3217 156.944 39.2806C156.944 35.4566 156.275 32.5807 154.917 30.5203C153.676 28.5289 151.777 27.0194 149.251 26.0078C151.48 24.9485 153.315 23.545 154.737 21.8184C156.625 19.4668 157.548 16.8556 157.49 14.0326C157.315 9.36652 155.464 5.87619 151.994 3.657C148.668 1.52785 143.755 0.489746 136.976 0.489746H109.252V50.6096H114.244V28.6295H136.663C143.151 28.6295 147.511 29.5829 149.639 31.4737C151.225 32.8455 152.026 35.3877 152.026 39.0422C152.026 43.3217 152.562 46.8915 153.612 49.6562L153.973 50.6096H160.121L158.763 48.3692L158.769 48.3745ZM148.201 21.4317C145.315 23.1636 141.379 24.0375 136.503 24.0375H114.244V5.08703H137.368C152.307 5.08703 152.514 11.8982 152.578 14.1333C152.668 17.2793 151.241 19.668 148.201 21.4317ZM58.5037 45.843H95.3364V49.5345H58.5037V45.843ZM10.2494 70.1587L10.2467 70.1613L8.80111 68.7022C8.05841 69.4384 6.94967 69.8409 5.96824 69.8409C3.18311 69.8409 2.10619 67.8971 2.09027 66.0328C2.07436 64.1526 3.24677 62.1294 5.96824 62.1294C6.94967 62.1294 7.94701 62.4683 8.68971 63.1886L10.1061 61.8222C8.94435 60.6834 7.49608 60.1061 5.96824 60.1061C1.89929 60.1061 -0.0158167 63.0933 9.83604e-05 66.0328C0.0160134 68.9564 1.78789 71.8324 5.96824 71.8324C7.59033 71.8324 9.09059 71.2982 10.2467 70.1613L10.2494 70.164V70.1587ZM19.459 71.8324C23.4166 71.8324 25.2044 68.9246 25.2362 66.0169C25.268 63.0774 23.3529 60.1061 19.459 60.1061C15.5652 60.1061 13.666 63.0774 13.666 66.0328C13.666 68.9882 15.5015 71.8324 19.459 71.8324ZM19.459 69.8886C16.8065 69.8886 15.8092 67.913 15.7614 66.0646C15.7084 64.1685 16.8012 62.034 19.459 62.034C22.1169 62.034 23.1779 64.1526 23.146 66.0487C23.1142 67.8971 22.1115 69.8886 19.459 69.8886ZM32.1433 60.3284V69.613H37.9364V71.5727H30.0213V60.3284H32.1433ZM46.9388 71.5727C50.8805 71.5727 52.6152 68.6968 52.5674 65.8526C52.5197 63.0773 50.8009 60.3284 46.9388 60.3284H42.5145V71.5727H46.9388ZM46.9388 69.5336H44.6205V62.3358H46.9388C49.3844 62.3358 50.4136 64.0889 50.4614 65.8367C50.5091 67.6693 49.4958 69.5336 46.9388 69.5336ZM62.9019 65.4395H56.9656V67.2403H62.9019V65.4395ZM69.9042 68.2624H73.0925C78.615 68.2624 78.5938 60.3125 73.0925 60.3125C72.2066 60.3125 71.322 60.3165 70.4373 60.3204C69.5527 60.3244 68.6681 60.3284 67.7822 60.3284V71.5727H69.9042V68.2624ZM73.0925 66.3186H69.9042V62.3357H73.0925C75.7981 62.3357 75.8087 66.3186 73.0925 66.3186ZM91.8722 71.5727H89.347L86.0685 67.8122H84.0261V71.5727H81.9041V60.3125C82.7977 60.3125 83.6913 60.3165 84.5843 60.3205H84.5848H84.5854H84.586H84.5865H84.5871L84.5891 60.3205C85.481 60.3244 86.3722 60.3284 87.2622 60.3284C89.9147 60.3443 91.3152 62.1133 91.3152 64.0571C91.3152 65.5983 90.6096 67.1555 88.4664 67.5898L91.8775 71.4297V71.5727H91.8722ZM84.0208 62.304V65.9055H87.2569C88.6096 65.9055 89.1879 65.0051 89.1879 64.1047C89.1879 63.2043 88.5937 62.304 87.2569 62.304H84.0208ZM95.9361 71.5727H104.366V69.4859H98.0422V66.9489H104.143V64.9734H98.0422V62.3834H104.366V60.3284H95.9361V71.5727ZM116.18 63.0456C115.793 62.4047 114.732 61.7956 113.506 61.7956C111.931 61.7956 111.172 62.4524 111.172 63.2892C111.172 64.269 112.329 64.5445 113.681 64.7034C116.031 64.9947 118.217 65.6037 118.217 68.2837C118.217 70.7889 116 71.8641 113.485 71.8641C111.183 71.8641 109.416 71.1544 108.578 69.0994L110.35 68.1831C110.848 69.4224 112.154 69.968 113.522 69.968C114.891 69.968 116.111 69.5019 116.111 68.2837C116.111 67.2244 115.002 66.7901 113.501 66.6312C111.199 66.3558 109.077 65.7467 109.077 63.2257C109.077 60.9111 111.358 59.9631 113.437 59.9472C115.188 59.9472 117.008 60.445 117.862 62.1823L116.175 63.0509L116.18 63.0456ZM127.368 61.7956C128.594 61.7956 129.655 62.4047 130.042 63.0456L131.719 62.1823C130.864 60.445 129.045 59.9472 127.294 59.9472C125.215 59.9631 122.933 60.9111 122.933 63.2257C122.933 65.7467 125.055 66.3558 127.358 66.6312C128.859 66.7901 129.968 67.2244 129.968 68.2837C129.968 69.5019 128.748 69.968 127.379 69.968C126.01 69.968 124.705 69.4224 124.207 68.1831L122.44 69.0994C123.278 71.1544 125.045 71.8641 127.347 71.8641C129.862 71.8641 132.079 70.7889 132.079 68.2837C132.079 65.6037 129.894 64.9947 127.543 64.7034C126.191 64.5445 125.034 64.269 125.034 63.2892C125.034 62.4524 125.793 61.7956 127.368 61.7956ZM145.347 71.5727H136.917V60.3284H145.347V62.3834H139.023V64.9734H145.124V66.9489H139.023V69.4859H145.347V71.5727ZM154.498 71.5727C158.44 71.5727 160.174 68.6968 160.127 65.8526C160.079 63.0773 158.36 60.3284 154.498 60.3284H150.074V71.5727H154.498ZM154.498 69.5336H152.18V62.3358H154.498C156.944 62.3358 157.973 64.0889 158.02 65.8367C158.068 67.6693 157.055 69.5336 154.498 69.5336Z" clip-rule="evenodd" fill-rule="evenodd" id="Union"></path>
</g>
</svg>
